# xmcd
#
# Track frame offsets:
#	150
#	24502
#	38514
#	68780
#	92051
#	114334
#	145014
#	167095
#	187767
#	216125
#	242614
#	266853
#	298658
#
# Disc length: 4269 seconds
#
# Revision: 1
# Processed by: cddbd v1.5.2PL0 Copyright (c) Steve Scherf et al.
# Submitted via: EZCDAudioConverter 2.1.7.1
#
DISCID=b010ab0d
DTITLE=V/A - Africa Rising
DYEAR=1900
DGENRE=MOJO
TTITLE0=Tinariwen - Tenhert (The Doe)
TTITLE1=Ali Farka Touré - Ali's Here
TTITLE2=Konono Nº1 - Paradiso
TTITLE3=Tony Allen - Secret Agent
TTITLE4=Staff Benda Bilili - Je T'aime
TTITLE5=Toumani Diabaté - Cantelowes
TTITLE6=Vieux Farka Touré - Fafa
TTITLE7=Khaled - Hiya Ansadou
TTITLE8=Mulatu Astatke and The Heliocentrics - Masengo
TTITLE9=Oumou Sangaré - Sukunyali
TTITLE10=Bassekou Kouyate - Ladon
TTITLE11=Kasai Allstars - Quick As White
TTITLE12=Kassé Mady Diabaté - Bandja
EXTD=
EXTT0=
EXTT1=
EXTT2=
EXTT3=
EXTT4=
EXTT5=
EXTT6=
EXTT7=
EXTT8=
EXTT9=
EXTT10=
EXTT11=
EXTT12=
PLAYORDER=
